<?xml version="1.0" standalone="no"?><!DOCTYPE svg PUBLIC "-//W3C//DTD SVG 1.1//EN"
        "http://www.w3.org/Graphics/SVG/1.1/DTD/svg11.dtd">
<svg t="1718743089668" class="icon" viewBox="0 0 1025 1024" version="1.1" xmlns="http://www.w3.org/2000/svg" p-id="4284"
     xmlns:xlink="http://www.w3.org/1999/xlink" width="200.1953125" height="200">
    <path d="M981.886772 862.28582 741.861562 658.137728c-24.825827-22.324245-51.361595-32.583897-72.799203-31.602264C725.743774 560.196043 759.974282 474.09729 759.974282 379.987141 759.974282 170.139242 589.83504 0 379.987141 0 170.139242 0 0 170.139242 0 379.987141c0 209.847899 170.139242 379.987141 379.987141 379.987141 94.110149 0 180.208902-34.230508 246.579989-90.880258-0.981633 21.437608 9.246354 47.973377 31.602264 72.799203l204.148092 240.025211c34.958817 38.82202 92.051885 42.115241 126.88404 7.283087S1020.740458 897.244637 981.886772 862.28582zM379.987141 633.311902c-139.898599 0-253.324761-113.426162-253.324761-253.324761S240.088542 126.66238 379.987141 126.66238s253.324761 113.426162 253.324761 253.324761S519.88574 633.311902 379.987141 633.311902z"
          fill="#8a8a8a" p-id="4285"></path>
</svg>