<?xml version="1.0" encoding="UTF-8"?>
<svg width="41px" height="42px" viewBox="0 0 41 42" version="1.1" xmlns="http://www.w3.org/2000/svg"
     xmlns:xlink="http://www.w3.org/1999/xlink">
    <title>链接</title>
    <g id="页面-1" stroke="none" stroke-width="1" fill="none" fill-rule="evenodd">
        <g id="编组-20" transform="translate(-189.000000, -1519.000000)" fill="#cccccc" fill-rule="nonzero">
            <g id="链接" transform="translate(189.000000, 1519.000000)">
                <path d="M25.2123158,16.4310122 C24.9028712,16.1125112 24.5730327,15.8254013 24.233151,15.5591837 L24.232536,15.559764 C23.8827136,15.213354 23.4077092,15 22.8840259,15 C21.809194,15 20.9379428,15.8970996 20.9379428,17.0037019 C20.9379428,17.4933503 21.1087804,17.9418473 21.3921945,18.2898929 L21.3921433,18.2898929 C21.3921945,18.2899456 21.392297,18.2900511 21.3923995,18.2901039 C21.528547,18.4572944 21.6905198,18.6014297 21.8723743,18.7155456 C22.0558684,18.8713404 22.2359806,19.0247612 22.4044099,19.1981772 L22.5648455,19.3634157 C24.5817949,21.437497 23.9796616,25.0109121 21.9627122,27.0876313 L13.3559615,35.9465692 C11.3390633,38.0206505 8.06004733,38.0206505 6.04304674,35.9465692 L5.88133007,35.779959 C3.8642782,33.7033453 3.8642782,30.324766 5.88133007,28.2531644 L9.6837219,24.3395119 C10.1715877,23.9408186 10.4847729,23.3254475 10.4847729,22.6344212 C10.4847729,21.432485 9.53845359,20.4581474 8.37108045,20.4581474 C7.93056134,20.4581474 7.5216579,20.5970069 7.18305719,20.8343658 C7.18198115,20.8320445 7.18085384,20.8298287 7.17972652,20.8274545 L7.13919488,20.8664956 C6.98951985,20.9772877 6.85419228,21.107231 6.73731146,21.2536877 L2.78580823,25.0607159 C-0.928602744,28.8877395 -0.928602744,35.1468612 2.78580823,38.9685562 L2.94624391,39.1336892 C6.66065488,42.9554369 12.7371748,42.9554369 16.4515858,39.1336892 L25.0557745,30.2721134 C28.7650614,26.4479387 29.0795788,20.4153078 25.3703432,16.59356 L25.2123158,16.4310122 Z"
                      id="路径"></path>
                <path d="M38.2091069,3.01161027 L38.0483588,2.84761511 C34.3267659,-0.949205037 28.2384129,-0.949205037 24.5167686,2.84761511 L15.8958246,11.6452658 C12.1741804,15.4420859 11.9692279,20.9248976 15.6908721,24.7241796 L15.8490531,24.8830941 C16.0180671,25.0554697 16.1934987,25.2179982 16.3725754,25.3738748 C16.502211,25.5215804 16.6544878,25.6480206 16.8237585,25.74801 C16.825042,25.7490575 16.8263769,25.7501575 16.8276604,25.751205 L16.8282251,25.7506813 C17.0980211,25.9089672 17.4106353,26 17.7442479,26 C18.7608987,26 19.5850214,25.1591255 19.5850214,24.1220435 C19.5850214,23.8293036 19.5193051,23.5522246 19.4021454,23.3052105 L19.4021454,23.3052105 C19.15879,22.7477527 18.7032429,22.4083964 18.3881644,22.086901 L18.2299319,21.9280913 C16.2091062,19.8664456 16.9764973,16.8712165 18.9973231,14.8095707 L27.6233499,6.01443422 C29.6391956,3.95268372 32.9257264,3.95268372 34.9466548,6.01443422 L35.1075056,6.17581045 C37.1283827,8.23761331 37.1283827,11.5931498 35.1075056,13.6522814 L31.310185,17.5289255 C30.7935937,17.9194026 30.4585949,18.5457373 30.4585949,19.2519482 C30.4585949,20.4355312 31.3991073,21.395094 32.559307,21.395094 C32.9631025,21.395094 33.3401494,21.2786056 33.6603107,21.0771602 C33.6627237,21.0813504 33.6649827,21.0852264 33.6673957,21.089469 L33.7262836,21.0340009 C33.9077221,20.9100748 34.0688809,20.7579171 34.2043693,20.5839701 L38.2063857,16.8165863 C41.9307511,13.0198184 41.9307511,6.808378 38.2091069,3.01161027 Z"
                      id="路径"></path>
            </g>
        </g>
    </g>
</svg>