<?xml version="1.0" encoding="UTF-8"?>
<svg width="44px" height="40px" viewBox="0 0 44 40" version="1.1" xmlns="http://www.w3.org/2000/svg" xmlns:xlink="http://www.w3.org/1999/xlink">
    <title>喇叭</title>
    <g id="页面-1" stroke="none" stroke-width="1" fill="none" fill-rule="evenodd">
        <g id="编组-20" transform="translate(-61.000000, -228.000000)" fill="#05A884" fill-rule="nonzero">
            <g id="喇叭" transform="translate(61.000000, 228.000000)">
                <path d="M23.7673333,0.188773767 C23.0957483,-0.140543856 22.2943527,-0.032645439 21.7316,0.462861126 L10.7286667,10.0366589 L1.95946666,9.99813848 L1.95213332,9.99813848 C1.44759997,9.99813848 0.960666648,10.2070375 0.602800017,10.5803889 C0.239879193,10.9599673 0.0378279689,11.4675648 0.0396,11.9952724 L0,27.9960486 C0,28.5264447 0.199466669,29.0375806 0.557333339,29.4124136 C0.915200008,29.7916912 1.4036,30.0005903 1.91253332,30.0005903 L10.7858667,30.0005903 L21.7330666,39.5388307 C22.2960054,40.0328376 23.0963567,40.1400902 23.7673333,39.8114365 C24.4390667,39.4825317 24.8688,38.7773123 24.8688,38.0009784 L24.8688,1.99923194 C24.8688,1.22437955 24.4405333,0.51767859 23.7673333,0.188773767 Z M31.1842667,10.1877773 C30.2412,9.72108801 29.1192,10.1462938 28.6616,11.1285637 C28.2065926,12.1109911 28.5902229,13.2813661 29.5357333,13.7953597 C29.656,13.8620296 32.5218666,15.4191422 32.5218666,19.8519498 C32.5218666,24.5899574 29.8422666,26.1589224 29.7542667,26.2107768 C28.8082667,26.7056156 28.4254666,27.9071554 28.8977333,28.8953515 C29.2103397,29.5672094 29.8773707,29.9977737 30.6122667,30.0020718 C30.8982667,30.0020718 31.1916,29.9354019 31.4658667,29.7916912 C31.6653333,29.6865009 36.3469333,27.1515632 36.3469333,19.8519498 C36.3469333,12.8101267 31.3954666,10.291486 31.1842667,10.1877773 L31.1842667,10.1877773 Z M37.1404,4.31489982 C36.2589333,3.72227849 35.0870667,3.99192118 34.5106667,4.91196581 C33.9386667,5.83201045 34.188,7.07058904 35.0665333,7.67654438 C35.2718667,7.8187735 40.1734667,11.3107947 40.1734667,20.0001051 C40.1734667,28.7086758 35.4728,32.2036601 35.2850667,32.3369999 C34.4018033,32.9690926 34.1683599,34.1919222 34.7556,35.1104678 C35.0258354,35.5500311 35.4629808,35.8581374 35.9646576,35.9626286 C36.4663343,36.0671199 36.9884768,35.9588181 37.4088,35.6630872 C37.6772,35.4793745 44,30.9487844 44,20.0001051 C44,9.03068413 37.4205333,4.50305711 37.1404,4.31638138 L37.1404,4.31489982 Z" id="形状"></path>
            </g>
        </g>
    </g>
</svg>