<?xml version="1.0" standalone="no"?><!DOCTYPE svg PUBLIC "-//W3C//DTD SVG 1.1//EN" "http://www.w3.org/Graphics/SVG/1.1/DTD/svg11.dtd"><svg t="1710315307145" class="icon" viewBox="0 0 1024 1024" version="1.1" xmlns="http://www.w3.org/2000/svg" p-id="40223" xmlns:xlink="http://www.w3.org/1999/xlink" width="200" height="200"><path d="M770.232 88.496H253.768C144.536 88.496 56 177.04 56 286.264v221.112c0 109.216 88.536 197.776 197.768 197.776h74.104v230.352l253.512-230.352h188.848c109.224 0 197.768-88.552 197.768-197.776V286.264c0-109.224-88.536-197.768-197.768-197.768zM278.856 476c-44.832 0-81.176-36.344-81.176-81.176s36.344-81.176 81.176-81.176 81.176 36.344 81.176 81.176S323.688 476 278.856 476zM512 476c-44.832 0-81.176-36.344-81.176-81.176S467.168 313.648 512 313.648s81.176 36.344 81.176 81.176S556.832 476 512 476z m231.28 0c-44.832 0-81.176-36.344-81.176-81.176s36.352-81.176 81.176-81.176c44.832 0 81.176 36.344 81.176 81.176 0.008 44.832-36.336 81.176-81.176 81.176z" fill="#ffffff" p-id="40224"></path></svg>