<svg width="24" height="24" viewBox="0 0 24 24" fill="none" xmlns="http://www.w3.org/2000/svg">
    <path d="M12.0002 1.33325C17.8915 1.33325 22.6668 6.10857 22.6668 11.9999C22.6668 17.8913 17.8915 22.6666 12.0002 22.6666C6.10882 22.6666 1.3335 17.8913 1.3335 11.9999C1.3335 6.10857 6.10882 1.33325 12.0002 1.33325Z" fill="#FF1477"/>
    <path fill-rule="evenodd" clip-rule="evenodd" d="M11.1997 8.9093L7.80448 12.3045C7.67882 12.4263 7.51027 12.4938 7.33527 12.4925C7.16027 12.4911 6.99282 12.421 6.86908 12.2972C6.74533 12.1735 6.67521 12.006 6.67385 11.831C6.67249 11.656 6.74 11.4875 6.86181 11.3618L11.5285 6.6952C11.6535 6.57021 11.823 6.5 11.9998 6.5C12.1766 6.5 12.3461 6.57021 12.4711 6.6952L17.1378 11.3619C17.2594 11.4876 17.3268 11.656 17.3254 11.8309C17.3239 12.0059 17.2538 12.1732 17.1301 12.2969C17.0064 12.4206 16.8391 12.4907 16.6642 12.4921C16.4893 12.4935 16.3208 12.4262 16.1951 12.3045L12.6997 8.80912V16.75C12.6997 17.1642 12.3639 17.5 11.9497 17.5C11.5355 17.5 11.1997 17.1642 11.1997 16.75V8.9093Z" fill="white"/>
</svg>
