<?xml version="1.0" encoding="UTF-8"?>
<svg width="41px" height="41px" viewBox="0 0 41 41" version="1.1" xmlns="http://www.w3.org/2000/svg"
     xmlns:xlink="http://www.w3.org/1999/xlink">
    <title>图片</title>
    <g id="页面-1" stroke="none" stroke-width="1" fill="none" fill-rule="evenodd">
        <g id="编组-20" transform="translate(-112.000000, -1519.000000)" fill="#cccccc" fill-rule="nonzero">
            <g id="图片" transform="translate(112.000000, 1519.000000)">
                <path d="M33.6614791,4.05165792e-06 L7.35383318,4.05165792e-06 L7.35383318,4.05165792e-06 C3.29242326,4.05165792e-06 0,3.28258233 0,7.33184283 L0,33.5607913 C0,37.6100518 3.29242326,40.892626 7.35383318,40.892626 L15.5538187,40.892626 C15.7384338,40.9539802 15.9230488,41.0000041 16.1230485,41.0000041 C16.3230481,41.0000041 16.5076632,40.9386417 16.6922782,40.892626 L33.6460945,40.892626 C37.7075044,40.892626 40.999964,37.6100518 40.999964,33.5607913 L40.999964,7.33184283 C41.0060659,5.38810836 40.2353744,3.52199744 38.8582602,2.14612436 C37.481146,0.77025128 35.6110541,-0.00204112043 33.6614791,4.05165792e-06 L33.6614791,4.05165792e-06 Z M3.69228522,33.5454527 L3.69228522,7.31650426 C3.69228522,5.30715207 5.33845212,3.66592547 7.35383318,3.66592547 L33.6614791,3.66592547 C35.6768601,3.66592547 37.3230111,5.30715207 37.3230111,7.31650426 L37.3230111,14.433599 C25.107648,15.3385745 15.3384345,25.0325484 14.38459,37.1960474 L7.35383318,37.1960474 C6.38185708,37.1988943 5.4488628,36.8152003 4.76156891,36.1299624 C4.07427502,35.4447245 3.68942974,34.5145212 3.69228522,33.5454527 Z M33.6614791,37.2113701 L18.0768912,37.2113701 C19.0153511,27.0725777 27.1537982,19.0044918 37.3230111,18.1301935 L37.3230111,33.5454527 C37.3230111,35.5701435 35.6768601,37.2113701 33.6614791,37.2113701 Z"
                      id="形状"></path>
            </g>
        </g>
    </g>
</svg>