<?xml version="1.0" standalone="no"?><!DOCTYPE svg PUBLIC "-//W3C//DTD SVG 1.1//EN" "http://www.w3.org/Graphics/SVG/1.1/DTD/svg11.dtd"><svg t="1710309309792" class="icon" viewBox="0 0 1054 1024" version="1.1" xmlns="http://www.w3.org/2000/svg" p-id="2642" xmlns:xlink="http://www.w3.org/1999/xlink" width="205.859375" height="200"><path d="M949.669647 65.084235a70.445176 70.445176 0 0 1 4.818824 140.709647l-4.818824 0.180706H104.448a70.445176 70.445176 0 0 1-4.818824-140.709647l4.818824-0.180706h845.221647zM949.669647 456.613647a70.445176 70.445176 0 0 1 4.818824 140.709647l-4.818824 0.180706H104.448a70.445176 70.445176 0 0 1-4.818824-140.709647l4.818824-0.180706h845.221647zM949.669647 818.025412a70.445176 70.445176 0 0 1 4.818824 140.709647l-4.818824 0.180706H104.448a70.445176 70.445176 0 0 1-4.818824-140.709647l4.818824-0.180706h845.221647z" fill="#000000" p-id="2643"></path></svg>