<?xml version="1.0" encoding="UTF-8"?>
<svg width="43px" height="43px" viewBox="0 0 43 43" version="1.1" xmlns="http://www.w3.org/2000/svg"
     xmlns:xlink="http://www.w3.org/1999/xlink">
    <title>表情</title>
    <g id="页面-1" stroke="none" stroke-width="1" fill="none" fill-rule="evenodd">
        <g id="编组-20" transform="translate(-33.000000, -1518.000000)" fill="#cccccc" fill-rule="nonzero">
            <g id="表情" transform="translate(33.000000, 1518.000000)">
                <path d="M21.5,0 C9.63079528,0.011863282 0.011863282,9.63079528 0,21.5 C0.011863282,33.3692047 9.63079528,42.9881367 21.5,43 C33.3692047,42.9881367 42.9881367,33.3692047 43,21.5 C42.9881367,9.63079528 33.3692047,0.011863282 21.5,0 L21.5,0 Z M21.5,39.9254969 C11.3287955,39.9136374 3.08636257,31.6712045 3.07450307,21.5 C3.08636257,11.3287955 11.3287955,3.08636257 21.5,3.07450307 C31.6712045,3.08636257 39.9136374,11.3287955 39.9254969,21.5 C39.9136374,31.6712045 31.6712045,39.9136374 21.5,39.9254969 Z"
                      id="形状"></path>
                <path d="M13,16 C13,16.7145312 13.3811978,17.3747852 14,17.7320508 C14.6188021,18.0893164 15.3811979,18.0893164 16,17.7320508 C16.6188022,17.3747852 17,16.7145312 17,16 C17,14.8954305 16.1045695,14 15,14 C13.8954305,14 13,14.8954305 13,16 L13,16 Z"
                      id="路径"></path>
                <path d="M26,16 C26,17.1045695 26.8954305,18 28,18 C29.1045695,18 30,17.1045695 30,16 C30,14.8954305 29.1045695,14 28,14 C26.8954305,14 26,14.8954305 26,16 L26,16 Z"
                      id="路径"></path>
                <path d="M29.3000596,27.2547409 C28.9615255,27.0476214 28.5504279,26.9772791 28.1574013,27.0592223 C27.7643747,27.1411656 27.421692,27.3686656 27.2049045,27.6915657 C26.2180561,29.1582557 23.9801875,30.1071203 21.5085118,30.1071203 C19.0368361,30.1071203 16.802004,29.1611486 15.8151556,27.6944586 C15.5288923,27.2463354 15.0103965,26.9810012 14.4601732,27.0010621 C13.90995,27.0211229 13.4142556,27.323434 13.1647776,27.7910899 C12.9152996,28.2587459 12.9511476,28.8184343 13.2584591,29.2537207 C14.8131249,31.5651317 17.9740763,33 21.5085118,33 C25.0459838,33 28.2069352,31.5651317 29.761601,29.2508279 C30.2120004,28.5780788 30.00548,27.6849139 29.3000596,27.2547409 L29.3000596,27.2547409 Z"
                      id="路径"></path>
            </g>
        </g>
    </g>
</svg>