<?xml version="1.0" encoding="UTF-8"?>
<svg width="130px" height="60px" viewBox="0 0 130 60" version="1.1" xmlns="http://www.w3.org/2000/svg"
     xmlns:xlink="http://www.w3.org/1999/xlink">
    <title>编组 2</title>
    <g id="页面-1" stroke="none" stroke-width="1" fill="none" fill-rule="evenodd">
        <g id="编组-20" transform="translate(-589.000000, -1506.000000)">
            <g id="编组-2" transform="translate(589.000000, 1506.000000)">
                <rect id="矩形备份-22" fill="#387f6b" x="0" y="0" width="130" height="60" rx="30"></rect>
                <g id="16寄件、发送"
                   transform="translate(65.000000, 30.000000) scale(-1, 1) translate(-65.000000, -30.000000) translate(46.000000, 11.000000)"
                   fill="#FFFFFF" fill-rule="nonzero">
                    <path d="M37.5895168,19.7110969 L1.1003817,0.0819495327 C0.572100525,-0.183822288 -0.0693837536,0.233819145 0.00608498503,0.803330189 L2.83616268,34.708221 C2.87389705,35.2397647 3.40217822,35.5435039 3.89272502,35.3536669 L15.6658482,30.3799371 L22.1184254,37.7456133 C22.5335035,38.2012221 23.2504565,38.0113851 23.401394,37.441874 L26.4956122,25.7858813 L37.5895168,21.0779234 C38.117798,20.8121515 38.1555324,20.0148361 37.5895168,19.7110969 L37.5895168,19.7110969 Z M22.1184254,34.2146448 L18.7223322,28.1398603 L1.36452228,1.18300422 L24.3824876,25.1024681 L22.1184254,34.2146448 Z"
                          id="形状"></path>
                </g>
            </g>
        </g>
    </g>
</svg>